<svg width="24" height="25" viewBox="0 0 24 25" fill="none" xmlns="http://www.w3.org/2000/svg">
<path d="M5.53158 5.49675L5.49424 4.74768L5.49424 4.74768L5.53158 5.49675ZM18.4683 5.4968L18.5056 4.74773L18.5056 4.74773L18.4683 5.4968ZM21.3086 8.24315L22.056 8.18068L22.056 8.18067L21.3086 8.24315ZM21.3039 16.3157L22.0512 16.3787V16.3787L21.3039 16.3157ZM18.5102 19.057L18.4613 18.3086L18.4613 18.3086L18.5102 19.057ZM5.48968 19.0571L5.44073 19.8055L5.44074 19.8055L5.48968 19.0571ZM2.6962 16.3171L3.44352 16.2537L2.6962 16.3171ZM2.69148 8.24175L1.94412 8.17893L1.94412 8.17893L2.69148 8.24175ZM5.56892 6.24582C8.33622 6.10789 10.4775 6.03955 11.9988 6.03955V4.53955C10.4404 4.53955 8.27014 4.60932 5.49424 4.74768L5.56892 6.24582ZM11.9988 6.03955C13.5202 6.03955 15.6622 6.10794 18.431 6.24587L18.5056 4.74773C15.7283 4.60937 13.5573 4.53955 11.9988 4.53955V6.03955ZM18.431 6.24587C19.5568 6.30197 20.4673 7.1824 20.5612 8.30563L22.056 8.18067C21.8995 6.3086 20.3819 4.84123 18.5056 4.74773L18.431 6.24587ZM20.5612 8.30562C20.6868 9.80794 20.7488 11.1224 20.7488 12.2515H22.2488C22.2488 11.0701 22.184 9.71236 22.056 8.18068L20.5612 8.30562ZM20.7488 12.2515C20.7488 13.3944 20.6852 14.7273 20.5565 16.2526L22.0512 16.3787C22.1824 14.8238 22.2488 13.4473 22.2488 12.2515H20.7488ZM20.5565 16.2526C20.4629 17.3619 19.5722 18.236 18.4613 18.3086L18.5592 19.8054C20.4107 19.6843 21.8952 18.2275 22.0512 16.3787L20.5565 16.2526ZM18.4613 18.3086C16.1037 18.4628 13.9498 18.5396 11.9988 18.5396V20.0396C13.9883 20.0396 16.1754 19.9613 18.5592 19.8054L18.4613 18.3086ZM11.9988 18.5396C10.048 18.5396 7.89491 18.4628 5.53862 18.3087L5.44074 19.8055C7.82325 19.9613 10.0095 20.0396 11.9988 20.0396V18.5396ZM5.53863 18.3087C4.42814 18.2361 3.53757 17.3625 3.44352 16.2537L1.94888 16.3804C2.10565 18.2285 3.5899 19.6844 5.44073 19.8055L5.53863 18.3087ZM3.44352 16.2537C3.31313 14.7165 3.24878 13.3833 3.24878 12.2515H1.74878C1.74878 13.4372 1.81604 14.8144 1.94888 16.3804L3.44352 16.2537ZM3.24878 12.2515C3.24878 11.1332 3.31159 9.81849 3.43884 8.30457L1.94412 8.17893C1.81444 9.72161 1.74878 11.08 1.74878 12.2515H3.24878ZM3.43884 8.30458C3.53323 7.18179 4.44358 6.30192 5.56892 6.24582L5.49424 4.74768C3.61867 4.84118 2.10142 6.30762 1.94412 8.17893L3.43884 8.30458Z" fill="white"/>
<path d="M11.1649 14.8501L10.7514 14.2244L10.7512 14.2245L11.1649 14.8501ZM14.4637 12.6698L14.8772 13.2955L14.8772 13.2955L14.4637 12.6698ZM14.5849 12.076L15.2106 11.6624L15.2106 11.6624L14.5849 12.076ZM14.4665 11.9566L14.048 12.579L14.0482 12.5791L14.4665 11.9566ZM11.1677 9.73848L11.5862 9.1161L11.5862 9.11608L11.1677 9.73848ZM10.5729 9.85503L9.95052 9.43652L9.95036 9.43677L10.5729 9.85503ZM9.75 10.0941V14.4926H11.25V10.0941H9.75ZM9.75 14.4926C9.75 15.1434 10.2777 15.6711 10.9285 15.6711V14.1711C11.1061 14.1711 11.25 14.315 11.25 14.4926H9.75ZM10.9285 15.6711C11.1596 15.6711 11.3857 15.6032 11.5786 15.4757L10.7512 14.2245C10.8039 14.1896 10.8656 14.1711 10.9285 14.1711V15.6711ZM11.5784 15.4758L14.8772 13.2955L14.0502 12.0441L10.7514 14.2244L11.5784 15.4758ZM14.8772 13.2955C15.4203 12.9366 15.5694 12.2054 15.2106 11.6624L13.9592 12.4895C13.8614 12.3415 13.902 12.1421 14.0502 12.0441L14.8772 13.2955ZM15.2106 11.6624C15.1249 11.5328 15.0142 11.4211 14.8848 11.3341L14.0482 12.5791C14.0127 12.5553 13.9825 12.5248 13.9592 12.4896L15.2106 11.6624ZM14.885 11.3342L11.5862 9.1161L10.7492 10.3609L14.048 12.579L14.885 11.3342ZM11.5862 9.11608C11.046 8.75291 10.3137 8.89638 9.95052 9.43652L11.1953 10.2735C11.0963 10.4208 10.8966 10.46 10.7492 10.3609L11.5862 9.11608ZM9.95036 9.43677C9.81989 9.63097 9.75 9.85979 9.75 10.0941H11.25C11.25 10.1582 11.2309 10.2205 11.1954 10.2733L9.95036 9.43677Z" fill="white"/>
</svg>
